<svg width="24" height="24" viewBox="0 0 24 24" fill="none" xmlns="http://www.w3.org/2000/svg">
<path d="M20.02 10.7L17.22 12.47L11.56 6.80998L13.32 4.00998C14.14 2.71998 15.78 2.65998 16.99 3.85998L20.17 7.03998C21.3 8.16998 21.23 9.92998 20.02 10.7Z" fill="#FF554A"/>
<path opacity="0.4" d="M14.71 19.95L6 20.98C5.4 21.05 4.86 20.96 4.41 20.74C3.92 20.5 3.54 20.12 3.3 19.63C3.08 19.18 3 18.64 3.06 18.05L4.1 9.32998C4.35 7.14998 5.16 6.43999 7.46 6.56999L11.58 6.81999L17.24 12.48L17.48 16.6C17.69 18.9 16.9 19.7 14.71 19.95Z" fill="#FF554A"/>
<path d="M7.98001 17.15L4.40001 20.73C3.91001 20.49 3.53001 20.11 3.29001 19.62L6.88001 16.03C7.19001 15.73 7.69001 15.73 7.99001 16.03C8.30001 16.35 8.30001 16.84 7.98001 17.15Z" fill="#FF554A"/>
</svg>
