<svg width="16" height="16" viewBox="0 0 16 16" fill="none" xmlns="http://www.w3.org/2000/svg">
<g clip-path="url(#clip0_104_881)">
<path d="M2 2L14 14" stroke="white" stroke-width="1.3" stroke-linecap="round" stroke-linejoin="round"/>
<path d="M2.6665 4.6665H4.6665M7.33317 4.6665H13.3332" stroke="white" stroke-width="1.3" stroke-linecap="round" stroke-linejoin="round"/>
<path d="M6.6665 7.3335V11.3335" stroke="white" stroke-width="1.3" stroke-linecap="round" stroke-linejoin="round"/>
<path d="M9.3335 9.3335V11.3335" stroke="white" stroke-width="1.3" stroke-linecap="round" stroke-linejoin="round"/>
<path d="M3.3335 4.6665L4.00016 12.6665C4.00016 13.0201 4.14064 13.3593 4.39069 13.6093C4.64074 13.8594 4.97987 13.9998 5.3335 13.9998H10.6668C11.0205 13.9998 11.3596 13.8594 11.6096 13.6093C11.8597 13.3593 12.0002 13.0201 12.0002 12.6665L12.0515 12.0512" stroke="white" stroke-width="1.3" stroke-linecap="round" stroke-linejoin="round"/>
<path d="M12.2559 9.58184L12.6665 4.6665" stroke="white" stroke-width="1.3" stroke-linecap="round" stroke-linejoin="round"/>
<path d="M6 3.33333V2.66667C6 2.48986 6.07024 2.32029 6.19526 2.19526C6.32029 2.07024 6.48986 2 6.66667 2H9.33333C9.51014 2 9.67971 2.07024 9.80474 2.19526C9.92976 2.32029 10 2.48986 10 2.66667V4.66667" stroke="white" stroke-width="1.3" stroke-linecap="round" stroke-linejoin="round"/>
</g>
<defs>
<clipPath id="clip0_104_881">
<rect width="16" height="16" fill="white"/>
</clipPath>
</defs>
</svg>
