<svg width="20" height="20" viewBox="0 0 20 20" fill="none" xmlns="http://www.w3.org/2000/svg">
<path opacity="0.4" d="M17.1667 3.41667V5.25C17.1667 5.91667 16.75 6.75 16.3333 7.16667L12.75 10.3333C12.25 10.75 11.9167 11.5833 11.9167 12.25V15.8333C11.9167 16.3333 11.5833 17 11.1667 17.25L9.99999 18C8.91666 18.6667 7.41666 17.9167 7.41666 16.5833V12.1667C7.41666 11.5833 7.08332 10.8333 6.74999 10.4167L5.91666 9.54167L10.7667 1.75H15.5C16.4167 1.75 17.1667 2.5 17.1667 3.41667Z" fill="#9C9D9E"/>
<path d="M9.41668 1.75L5.10001 8.675L3.58334 7.08333C3.16668 6.66667 2.83334 5.91667 2.83334 5.41667V3.5C2.83334 2.5 3.58334 1.75 4.50001 1.75H9.41668Z" fill="#9C9D9E"/>
</svg>
