<svg width="43" height="18" viewBox="0 0 43 18" fill="none" xmlns="http://www.w3.org/2000/svg">
<path d="M10.0703 5.60156C10.0078 4.97135 9.73958 4.48177 9.26563 4.13281C8.79167 3.78385 8.14844 3.60937 7.33594 3.60937C6.78385 3.60937 6.31771 3.6875 5.9375 3.84375C5.55729 3.99479 5.26563 4.20573 5.0625 4.47656C4.86458 4.7474 4.76563 5.05469 4.76563 5.39844C4.75521 5.6849 4.8151 5.9349 4.94531 6.14844C5.08073 6.36198 5.26563 6.54687 5.5 6.70312C5.73438 6.85417 6.00521 6.98698 6.3125 7.10156C6.61979 7.21094 6.94792 7.30469 7.29688 7.38281L8.73438 7.72656C9.43229 7.88281 10.0729 8.09115 10.6562 8.35156C11.2396 8.61198 11.7448 8.93229 12.1719 9.3125C12.599 9.69271 12.9297 10.1406 13.1641 10.6562C13.4036 11.1719 13.526 11.763 13.5312 12.4297C13.526 13.4089 13.276 14.2578 12.7813 14.9766C12.2917 15.6901 11.5833 16.2448 10.6562 16.6406C9.73438 17.0312 8.6224 17.2266 7.32031 17.2266C6.02865 17.2266 4.90365 17.0286 3.94531 16.6328C2.99219 16.237 2.2474 15.651 1.71094 14.875C1.17969 14.0937 0.901042 13.1276 0.875 11.9766H4.14844C4.1849 12.513 4.33854 12.9609 4.60938 13.3203C4.88542 13.6745 5.2526 13.9427 5.71094 14.125C6.17448 14.3021 6.69792 14.3906 7.28125 14.3906C7.85417 14.3906 8.35156 14.3073 8.77344 14.1406C9.20052 13.974 9.53125 13.7422 9.76563 13.4453C10 13.1484 10.1172 12.8073 10.1172 12.4219C10.1172 12.0625 10.0104 11.7604 9.79688 11.5156C9.58854 11.2708 9.28125 11.0625 8.875 10.8906C8.47396 10.7187 7.98177 10.5625 7.39844 10.4219L5.65625 9.98437C4.30729 9.65625 3.24219 9.14323 2.46094 8.44531C1.67969 7.7474 1.29167 6.80729 1.29688 5.625C1.29167 4.65625 1.54948 3.8099 2.07031 3.08594C2.59635 2.36198 3.31771 1.79687 4.23438 1.39062C5.15104 0.984374 6.19271 0.781249 7.35938 0.781249C8.54688 0.781249 9.58333 0.984374 10.4688 1.39062C11.3594 1.79687 12.0521 2.36198 12.5469 3.08594C13.0417 3.8099 13.2969 4.64844 13.3125 5.60156H10.0703ZM14.9266 17V1H21.2391C22.4527 1 23.4865 1.23177 24.3407 1.69531C25.1949 2.15365 25.8459 2.79167 26.2938 3.60937C26.747 4.42187 26.9735 5.35937 26.9735 6.42187C26.9735 7.48437 26.7443 8.42187 26.286 9.23437C25.8277 10.0469 25.1636 10.6797 24.2938 11.1328C23.4292 11.5859 22.3824 11.8125 21.1532 11.8125H17.1298V9.10156H20.6063C21.2574 9.10156 21.7938 8.98958 22.2157 8.76562C22.6428 8.53646 22.9605 8.22135 23.1688 7.82031C23.3824 7.41406 23.4891 6.94792 23.4891 6.42187C23.4891 5.89062 23.3824 5.42708 23.1688 5.03125C22.9605 4.63021 22.6428 4.32031 22.2157 4.10156C21.7886 3.8776 21.247 3.76562 20.5907 3.76562H18.3095V17H14.9266ZM42.408 6.60156H38.9861C38.9236 6.15885 38.796 5.76562 38.6033 5.42187C38.4106 5.07292 38.1632 4.77604 37.8611 4.53125C37.559 4.28646 37.2101 4.09896 36.8142 3.96875C36.4236 3.83854 35.9991 3.77344 35.5408 3.77344C34.7127 3.77344 33.9913 3.97917 33.3767 4.39062C32.7621 4.79687 32.2856 5.39062 31.947 6.17188C31.6085 6.94792 31.4392 7.89062 31.4392 9C31.4392 10.1406 31.6085 11.099 31.947 11.875C32.2908 12.651 32.7699 13.237 33.3845 13.6328C33.9991 14.0286 34.7101 14.2266 35.5173 14.2266C35.9705 14.2266 36.3897 14.1667 36.7752 14.0469C37.1658 13.9271 37.5121 13.7526 37.8142 13.5234C38.1163 13.2891 38.3663 13.0052 38.5642 12.6719C38.7673 12.3385 38.908 11.9583 38.9861 11.5312L42.408 11.5469C42.3194 12.2812 42.0981 12.9896 41.7439 13.6719C41.3949 14.349 40.9236 14.9557 40.3298 15.4922C39.7413 16.0234 39.0382 16.4453 38.2205 16.7578C37.408 17.0651 36.4887 17.2187 35.4627 17.2187C34.0356 17.2187 32.7595 16.8958 31.6345 16.25C30.5147 15.6042 29.6293 14.6693 28.9783 13.4453C28.3324 12.2214 28.0095 10.7396 28.0095 9C28.0095 7.25521 28.3377 5.77083 28.9939 4.54688C29.6502 3.32292 30.5408 2.39062 31.6658 1.75C32.7908 1.10417 34.0564 0.781249 35.4627 0.781249C36.3897 0.781249 37.2491 0.911458 38.0408 1.17187C38.8377 1.43229 39.5434 1.8125 40.158 2.3125C40.7726 2.80729 41.2726 3.41406 41.658 4.13281C42.0486 4.85156 42.2986 5.67448 42.408 6.60156Z" fill="white"/>
</svg>
