<svg width="20" height="20" viewBox="0 0 20 20" fill="none" xmlns="http://www.w3.org/2000/svg">
<path d="M6.03354 1.66687H4.4502C2.6252 1.66687 1.66687 2.6252 1.66687 4.44187V6.0252C1.66687 7.84187 2.6252 8.8002 4.44187 8.8002H6.0252C7.84187 8.8002 8.8002 7.84187 8.8002 6.0252V4.44187C8.80854 2.6252 7.8502 1.66687 6.03354 1.66687Z" fill="white"/>
<path opacity="0.4" d="M15.5582 1.66687H13.9748C12.1582 1.66687 11.1998 2.6252 11.1998 4.44187V6.0252C11.1998 7.84187 12.1582 8.8002 13.9748 8.8002H15.5582C17.3748 8.8002 18.3332 7.84187 18.3332 6.0252V4.44187C18.3332 2.6252 17.3748 1.66687 15.5582 1.66687Z" fill="white"/>
<path d="M15.5582 11.1917H13.9748C12.1582 11.1917 11.1998 12.15 11.1998 13.9667V15.55C11.1998 17.3667 12.1582 18.325 13.9748 18.325H15.5582C17.3748 18.325 18.3332 17.3667 18.3332 15.55V13.9667C18.3332 12.15 17.3748 11.1917 15.5582 11.1917Z" fill="white"/>
<path opacity="0.4" d="M6.03354 11.1917H4.4502C2.6252 11.1917 1.66687 12.15 1.66687 13.9667V15.55C1.66687 17.375 2.6252 18.3333 4.44187 18.3333H6.0252C7.84187 18.3333 8.8002 17.375 8.8002 15.5583V13.975C8.80854 12.15 7.8502 11.1917 6.03354 11.1917Z" fill="white"/>
</svg>
