<svg width="20" height="20" viewBox="0 0 20 20" fill="none" xmlns="http://www.w3.org/2000/svg">
<path opacity="0.4" d="M16.6997 5.6833L11.8997 2.32497C10.5914 1.4083 8.58308 1.4583 7.32475 2.4333L3.14975 5.69164C2.31641 6.34164 1.65808 7.67497 1.65808 8.72497V14.475C1.65808 16.6 3.38308 18.3333 5.50808 18.3333H14.4914C16.6164 18.3333 18.3414 16.6083 18.3414 14.4833V8.8333C18.3414 7.7083 17.6164 6.32497 16.6997 5.6833Z" fill="#E7F2FE"/>
<path d="M10 15.625C9.65833 15.625 9.375 15.3417 9.375 15V12.5C9.375 12.1583 9.65833 11.875 10 11.875C10.3417 11.875 10.625 12.1583 10.625 12.5V15C10.625 15.3417 10.3417 15.625 10 15.625Z" fill="#E7F2FE"/>
</svg>
