<svg width="20" height="20" viewBox="0 0 20 20" fill="none" xmlns="http://www.w3.org/2000/svg">
<path opacity="0.4" d="M15.9164 16.9166C15.7498 16.9166 15.5831 16.8333 15.4998 16.75C15.2498 16.5 15.2498 16.0833 15.4998 15.8333C16.9164 14.4166 17.6664 12.5 17.6664 10.4166C17.6664 6.16663 14.2498 2.74996 9.99976 2.74996C5.74976 2.74996 2.33309 6.16663 2.33309 10.4166C2.33309 12.4166 3.08309 14.3333 4.49976 15.8333C4.74976 16.0833 4.74976 16.5 4.49976 16.75C4.24976 17 3.83309 17 3.58309 16.75C1.91642 15.0833 0.999756 12.8333 0.999756 10.5C0.999756 5.49996 5.08309 1.41663 9.99976 1.41663C14.9164 1.41663 18.9998 5.41663 18.9998 10.4166C18.9998 12.75 18.0831 15 16.4164 16.6666C16.2498 16.8333 16.0831 16.9166 15.9164 16.9166Z" fill="#E7F2FE"/>
<path d="M10.0004 18.3333C11.7953 18.3333 13.2504 16.8782 13.2504 15.0833C13.2504 13.2884 11.7953 11.8333 10.0004 11.8333C8.20544 11.8333 6.75037 13.2884 6.75037 15.0833C6.75037 16.8782 8.20544 18.3333 10.0004 18.3333Z" fill="#E7F2FE"/>
<path d="M13.3335 7.08325C12.4169 7.08325 11.6669 7.83325 11.6669 8.74992V9.41659C11.6669 9.99992 12.1669 10.4166 12.6669 10.4166H13.3335C14.2502 10.4166 15.0002 9.66658 15.0002 8.74992C15.0002 7.83325 14.2502 7.08325 13.3335 7.08325Z" fill="#E7F2FE"/>
</svg>
