<svg width="20" height="20" viewBox="0 0 20 20" fill="none" xmlns="http://www.w3.org/2000/svg">
<path opacity="0.4" d="M6.46651 3.04163H13.5332C15.5915 3.04163 17.2582 4.71663 17.2582 6.76663V14.6083C17.2582 16.6583 15.5832 18.3333 13.5332 18.3333H6.47484C4.41651 18.3333 2.74984 16.6583 2.74984 14.6083V6.76663C2.74151 4.70829 4.41651 3.04163 6.46651 3.04163Z" fill="#E7F2FE"/>
<path d="M8.04141 1.66675H11.9581C12.8247 1.66675 13.5331 2.36675 13.5331 3.23341V4.01675C13.5331 4.88341 12.8331 5.58341 11.9664 5.58341H8.04141C7.17475 5.58341 6.47475 4.88341 6.47475 4.01675V3.23341C6.46641 2.36675 7.17475 1.66675 8.04141 1.66675Z" fill="#E7F2FE"/>
<path d="M7.49976 11.0417C7.84143 11.0417 8.12476 11.325 8.12476 11.6667V12.6583L12.0581 8.72501C12.2998 8.48335 12.6998 8.48335 12.9414 8.72501C13.1831 8.96668 13.1831 9.36668 12.9414 9.60834L9.0081 13.5417H9.99976C10.3414 13.5417 10.6248 13.825 10.6248 14.1667C10.6248 14.5083 10.3414 14.7917 9.99976 14.7917H7.49976C7.1581 14.7917 6.87476 14.5083 6.87476 14.1667V11.6667C6.87476 11.325 7.1581 11.0417 7.49976 11.0417Z" fill="#E7F2FE"/>
</svg>
