<svg width="20" height="20" viewBox="0 0 20 20" fill="none" xmlns="http://www.w3.org/2000/svg">
<path d="M6.66687 4.79175C6.3252 4.79175 6.04187 4.50841 6.04187 4.16675V1.66675C6.04187 1.32508 6.3252 1.04175 6.66687 1.04175C7.00854 1.04175 7.29187 1.32508 7.29187 1.66675V4.16675C7.29187 4.50841 7.00854 4.79175 6.66687 4.79175Z" fill="#E7F2FE"/>
<path d="M13.3331 4.79175C12.9915 4.79175 12.7081 4.50841 12.7081 4.16675V1.66675C12.7081 1.32508 12.9915 1.04175 13.3331 1.04175C13.6748 1.04175 13.9581 1.32508 13.9581 1.66675V4.16675C13.9581 4.50841 13.6748 4.79175 13.3331 4.79175Z" fill="#E7F2FE"/>
<path opacity="0.4" d="M17.5 7.08341V14.1667C17.5 16.6667 16.25 18.3334 13.3333 18.3334H6.66667C3.75 18.3334 2.5 16.6667 2.5 14.1667V7.08341C2.5 4.58341 3.75 2.91675 6.66667 2.91675H13.3333C16.25 2.91675 17.5 4.58341 17.5 7.08341Z" fill="#E7F2FE"/>
<path d="M13.3335 9.79175H6.66687C6.3252 9.79175 6.04187 9.50841 6.04187 9.16675C6.04187 8.82508 6.3252 8.54175 6.66687 8.54175H13.3335C13.6752 8.54175 13.9585 8.82508 13.9585 9.16675C13.9585 9.50841 13.6752 9.79175 13.3335 9.79175Z" fill="#E7F2FE"/>
<path d="M10.0002 13.9583H6.66687C6.3252 13.9583 6.04187 13.6749 6.04187 13.3333C6.04187 12.9916 6.3252 12.7083 6.66687 12.7083H10.0002C10.3419 12.7083 10.6252 12.9916 10.6252 13.3333C10.6252 13.6749 10.3419 13.9583 10.0002 13.9583Z" fill="#E7F2FE"/>
</svg>
