<svg width="24" height="24" viewBox="0 0 24 24" fill="none" xmlns="http://www.w3.org/2000/svg">
<path opacity="0.4" d="M20.3992 16.3288C20.1192 17.0788 19.5292 17.6488 18.7592 17.9088C17.6792 18.2688 16.5692 18.5388 15.4492 18.7288C15.3392 18.7488 15.2292 18.7688 15.1192 18.7788C14.9392 18.8088 14.7592 18.8288 14.5792 18.8488C14.3592 18.8788 14.1292 18.8988 13.8992 18.9188C13.2692 18.9688 12.6492 18.9988 12.0192 18.9988C11.3792 18.9988 10.7392 18.9688 10.1092 18.9088C9.83922 18.8888 9.57923 18.8588 9.31923 18.8188C9.16923 18.7988 9.01923 18.7788 8.87923 18.7588C8.76923 18.7388 8.65922 18.7288 8.54923 18.7088C7.43923 18.5288 6.33923 18.2588 5.26923 17.8988C4.46923 17.6288 3.85923 17.0588 3.58923 16.3288C3.31923 15.6088 3.41923 14.7688 3.84923 14.0488L4.97923 12.1688C5.21923 11.7588 5.43923 10.9688 5.43923 10.4888V8.62883C5.43923 4.99883 8.38923 2.04883 12.0192 2.04883C15.6392 2.04883 18.5892 4.99883 18.5892 8.62883V10.4888C18.5892 10.9688 18.8092 11.7588 19.0592 12.1688L20.1892 14.0488C20.5992 14.7488 20.6792 15.5688 20.3992 16.3288Z" fill="#479CF6"/>
<path d="M12.0007 10.7606C11.5807 10.7606 11.2407 10.4206 11.2407 10.0006V6.90062C11.2407 6.48062 11.5807 6.14062 12.0007 6.14062C12.4207 6.14062 12.7607 6.48062 12.7607 6.90062V10.0006C12.7507 10.4206 12.4107 10.7606 12.0007 10.7606Z" fill="#479CF6"/>
<path d="M14.8302 20.01C14.4102 21.17 13.3002 22 12.0002 22C11.2102 22 10.4302 21.68 9.88018 21.11C9.56018 20.81 9.32018 20.41 9.18018 20C9.31018 20.02 9.44018 20.03 9.58018 20.05C9.81018 20.08 10.0502 20.11 10.2902 20.13C10.8602 20.18 11.4402 20.21 12.0202 20.21C12.5902 20.21 13.1602 20.18 13.7202 20.13C13.9302 20.11 14.1402 20.1 14.3402 20.07C14.5002 20.05 14.6602 20.03 14.8302 20.01Z" fill="#479CF6"/>
</svg>
