<svg width="20" height="20" viewBox="0 0 20 20" fill="none" xmlns="http://www.w3.org/2000/svg">
<g clip-path="url(#clip0_164_2155)">
<path d="M14.1667 14.1667H15.8333C16.2754 14.1667 16.6993 13.9911 17.0118 13.6785C17.3244 13.3659 17.5 12.942 17.5 12.5V9.16667C17.5 8.72464 17.3244 8.30072 17.0118 7.98816C16.6993 7.6756 16.2754 7.5 15.8333 7.5H4.16667C3.72464 7.5 3.30072 7.6756 2.98816 7.98816C2.67559 8.30072 2.5 8.72464 2.5 9.16667V12.5C2.5 12.942 2.67559 13.3659 2.98816 13.6785C3.30072 13.9911 3.72464 14.1667 4.16667 14.1667H5.83333" stroke="white" stroke-width="2" stroke-linecap="round" stroke-linejoin="round"/>
<path d="M14.1654 7.5V4.16667C14.1654 3.72464 13.9898 3.30072 13.6772 2.98816C13.3646 2.67559 12.9407 2.5 12.4987 2.5H7.4987C7.05667 2.5 6.63275 2.67559 6.32019 2.98816C6.00763 3.30072 5.83203 3.72464 5.83203 4.16667V7.5" stroke="white" stroke-width="2" stroke-linecap="round" stroke-linejoin="round"/>
<path d="M5.83203 12.4997C5.83203 12.0576 6.00763 11.6337 6.32019 11.3212C6.63275 11.0086 7.05667 10.833 7.4987 10.833H12.4987C12.9407 10.833 13.3646 11.0086 13.6772 11.3212C13.9898 11.6337 14.1654 12.0576 14.1654 12.4997V15.833C14.1654 16.275 13.9898 16.699 13.6772 17.0115C13.3646 17.3241 12.9407 17.4997 12.4987 17.4997H7.4987C7.05667 17.4997 6.63275 17.3241 6.32019 17.0115C6.00763 16.699 5.83203 16.275 5.83203 15.833V12.4997Z" stroke="white" stroke-width="2" stroke-linecap="round" stroke-linejoin="round"/>
</g>
<defs>
<clipPath id="clip0_164_2155">
<rect width="20" height="20" fill="white"/>
</clipPath>
</defs>
</svg>
