<svg width="24" height="24" viewBox="0 0 24 24" fill="none" xmlns="http://www.w3.org/2000/svg">
<path opacity="0.4" d="M18.3847 5.94683L13.6283 3.19603C12.7175 2.67163 11.2915 2.67163 10.3807 3.19603L5.57828 5.96523C3.67388 7.25323 3.56348 7.44643 3.56348 9.49803V14.4936C3.56348 16.5452 3.67388 16.7476 5.61508 18.054L10.3715 20.8048C10.8315 21.0716 11.4203 21.2004 11.9999 21.2004C12.5795 21.2004 13.1683 21.0716 13.6191 20.8048L18.4215 18.0356C20.3259 16.7476 20.4363 16.5544 20.4363 14.5028V9.49803C20.4363 7.44643 20.3259 7.25323 18.3847 5.94683Z" fill="#479CF6"/>
<path d="M12.0003 14.9898C13.6516 14.9898 14.9903 13.6511 14.9903 11.9998C14.9903 10.3485 13.6516 9.00977 12.0003 9.00977C10.3489 9.00977 9.01025 10.3485 9.01025 11.9998C9.01025 13.6511 10.3489 14.9898 12.0003 14.9898Z" fill="#479CF6"/>
</svg>
