<svg width="41" height="40" viewBox="0 0 41 40" fill="none" xmlns="http://www.w3.org/2000/svg">
<g clip-path="url(#clip0_147_7007)">
<path d="M15.5499 31.5498L15.3569 31.5383C14.9555 31.491 14.5855 31.298 14.3169 30.996C14.0484 30.694 13.9 30.3039 13.8999 29.8998V21.6515L9.63304 21.6498C8.98046 21.6497 8.34258 21.456 7.80002 21.0934C7.25747 20.7308 6.83461 20.2155 6.5849 19.6126C6.33519 19.0097 6.26984 18.3462 6.39711 17.7062C6.52438 17.0662 6.83857 16.4782 7.29994 16.0167L18.1668 5.14981C18.7857 4.53115 19.6249 4.18361 20.4999 4.18361C21.375 4.18361 22.2142 4.53115 22.833 5.14981L33.6999 16.0167C34.1617 16.4782 34.4762 17.0663 34.6037 17.7066C34.7312 18.3468 34.6659 19.0105 34.416 19.6137L34.3038 19.853C34.0271 20.3938 33.6065 20.8477 33.0882 21.1648C32.57 21.4818 31.9743 21.6497 31.3668 21.6498L27.0999 21.6515V29.8998C27.0999 30.3374 26.9261 30.7571 26.6167 31.0665C26.3072 31.376 25.8875 31.5498 25.4499 31.5498H15.5499Z" fill="#479CF6"/>
<path d="M25.4503 36.5C25.8708 36.4995 26.2753 36.3385 26.5811 36.0498C26.8869 35.7611 27.071 35.3665 27.0956 34.9467C27.1203 34.5269 26.9837 34.1135 26.7137 33.791C26.4438 33.4685 26.0609 33.2612 25.6433 33.2115L25.4503 33.2H15.5503C15.1297 33.2005 14.7252 33.3615 14.4194 33.6502C14.1136 33.9389 13.9296 34.3335 13.9049 34.7533C13.8803 35.1731 14.0169 35.5865 14.2868 35.909C14.5567 36.2315 14.9396 36.4388 15.3572 36.4885L15.5503 36.5H25.4503Z" fill="#479CF6"/>
</g>
<defs>
<clipPath id="clip0_147_7007">
<rect width="39.6" height="39.6" fill="white" transform="matrix(1 0 0 -1 0.699951 39.7998)"/>
</clipPath>
</defs>
</svg>
